<svg xmlns="http://www.w3.org/2000/svg" width="311.811" height="311.811" viewBox="0 0 311.811 311.811"><path fill="#0055C8" d="M-.001 0v311.812H311.81V0H-.001z"/><g fill="#FFF"><path d="M200.529 243.932V159.1s14.046-2.444 14.046 10.861v73.971h-14.046zM147.653 90.297c-3.451 0-7.166 3.177-7.166 5.58v44.531h-14.845v-39.636c0-13.929 6.098-22.667 20.816-22.667h21.075c0 3.055-.385 12.192-7.861 12.192h-12.019zM176.249 140.408V55.577s14.039-2.444 14.039 10.86v73.972h-14.039zM265.716 163.986h-30.318s-.37-12.183 8.771-12.183h18.896c5.299 0 6.346-1.593 6.346-4.511v-6.884h-48.082c-14.706 0-20.8-8.758-20.8-22.668V92.433 78.105s14.044-2.526 14.044 14.924v30.005c0 3.843 1.333 5.177 5.18 5.177h45.963c2.91 0 3.695-.398 3.695-5.299V89.898 78.105h14.052v67.589c0 11.801-6.359 18.292-17.747 18.292zM100.527 123.239c0 3.592-1.044 5.041-4.765 5.041H48.323c-3.458 0-4.519-1.448-4.519-5.041V95.405c0-3.57 1.061-5.032 4.519-5.032h47.439c3.72 0 4.765 1.462 4.765 5.032v27.834zm14.056-1.59V97.003c0-12.994-3.972-18.822-18.023-18.822H47.786c-14.052 0-18.012 5.829-18.012 18.822v24.646c0 13.013 3.96 18.828 18.012 18.828h48.773c14.052 0 18.024-5.815 18.024-18.828zM83.156 239.099s-3.15 5.313-7.119 5.313h-6.606c-4.844 0-7.934-5.341-7.934-5.341l-33.152-57.33h6.429c4.696 0 8.973.761 14.18 9.382 5.207 8.622 23.353 40.486 23.353 40.486l28.765-49.868h15.2l-33.116 57.358zM172.994 226.009c0 5.739-.918 6.138-5.24 6.138h-41.362c-4.716 0-6.541-.806-6.541-5.336v-6.398c0-4.53 1.825-5.332 6.541-5.332h46.602v10.928zm13.858 17.923c0-4.666.01-13.378.01-19.776v-18.809c0-16.935-5.102-23.606-20.679-23.606h-27.166s-2.904 12.265 13.621 12.265h15.116c4.322 0 5.24 1.209 5.24 4.002v4.937h-49.221c-13.869 0-17.797 8.662-17.797 18.939v3.598c0 13.07 3.917 18.451 17.786 18.451h63.09z"/></g></svg>