<svg id="Calque_1" xmlns="http://www.w3.org/2000/svg" viewBox="0 0 92 92"><style>.st0,.st1{fill:#e45e37}.st1{fill-rule:evenodd;clip-rule:evenodd}</style><path class="st0" d="M31 68.2V33.8c-2.7 2.1-6.9 4.2-9.8 5.5l-3-6.7c4.6-1.9 10.1-4.8 14.4-8.1h7.6v43.7H31zM58.1 68.2V33.8c-2.7 2.1-6.9 4.2-9.8 5.5l-3-6.7c4.6-1.9 10.1-4.8 14.4-8.1h7.6v43.7h-9.2z"/><path class="st1" d="M92 46.1c0 25.6-20.6 46-45.9 46C20.7 92.1 0 71.6 0 46.1 0 20.8 20.7.1 46.1.1 70.6.1 92 20.8 92 46.1zm-6.3 0c0-21.9-17.9-39.6-39.6-39.6-21.9 0-39.7 17.8-39.7 39.6 0 22 17.9 39.6 39.7 39.6 21.8.1 39.6-17.7 39.6-39.6z"/></svg>